<svg width="14" height="12" viewBox="0 0 14 12" fill="none" xmlns="http://www.w3.org/2000/svg">
<path d="M6.21414 5.85788L0.66126 1.29686C0.532725 1.19137 0.461914 1.05055 0.461914 0.900399C0.461914 0.750245 0.532725 0.609424 0.66126 0.503934L1.0701 0.168046C1.3365 -0.0505178 1.76948 -0.0505178 2.03548 0.168046L6.69845 3.99804L11.3666 0.163797C11.4951 0.0583058 11.6665 6.09067e-05 11.8492 6.09046e-05C12.0321 6.09025e-05 12.2034 0.0583058 12.3321 0.163797L12.7408 0.499684C12.8694 0.605258 12.9402 0.745996 12.9402 0.896149C12.9402 1.0463 12.8694 1.18712 12.7408 1.29261L7.18287 5.85788C7.05393 5.96362 6.88177 6.0217 6.69876 6.02137C6.51503 6.0217 6.34298 5.96362 6.21414 5.85788Z" fill="#001F42"/>
<path d="M6.21414 11.8366L0.66126 7.27556C0.532725 7.17007 0.461914 7.02925 0.461914 6.8791C0.461914 6.72894 0.532725 6.58812 0.66126 6.48263L1.0701 6.14675C1.3365 5.92818 1.76948 5.92818 2.03548 6.14675L6.69845 9.97674L11.3666 6.1425C11.4951 6.037 11.6665 5.97876 11.8492 5.97876C12.0321 5.97876 12.2034 6.037 12.3321 6.1425L12.7408 6.47838C12.8694 6.58396 12.9402 6.72469 12.9402 6.87485C12.9402 7.025 12.8694 7.16582 12.7408 7.27131L7.18287 11.8366C7.05393 11.9423 6.88177 12.0004 6.69876 12.0001C6.51503 12.0004 6.34298 11.9423 6.21414 11.8366Z" fill="#001F42"/>
</svg>
