<svg width="17" height="20" viewBox="0 0 17 20" fill="none" xmlns="http://www.w3.org/2000/svg">
<path d="M8.80286 13.9822L4.15655 13.9844C4.15655 13.9844 4.1564 13.9844 4.15625 13.9844C3.72488 13.9844 3.37515 13.6349 3.375 13.2036C3.37469 12.7721 3.72443 12.422 4.15579 12.4219L8.80209 12.4197H8.8024C9.23376 12.4197 9.5835 12.7692 9.58365 13.2005C9.58395 13.632 9.23437 13.9819 8.80286 13.9822ZM7.74741 15.2713L4.15579 15.2734C3.72427 15.2737 3.37469 15.6238 3.375 16.0551C3.3753 16.4865 3.72504 16.8359 4.15625 16.8359H4.15671L7.74832 16.8338C8.17984 16.8335 8.52942 16.4835 8.52911 16.0521C8.52881 15.6207 8.17908 15.2713 7.74786 15.2713C7.74771 15.2713 7.74756 15.2713 7.74741 15.2713ZM15.8773 15.126L11.2301 19.769C11.2299 19.769 11.2299 19.769 11.2299 19.7691L11.2296 19.7693C11.2287 19.7704 11.2275 19.7713 11.2264 19.7723C11.2093 19.7891 11.1916 19.8053 11.1732 19.8204C11.1684 19.8244 11.1634 19.8276 11.1585 19.8314C11.1432 19.8433 11.1278 19.8552 11.1117 19.866C11.1074 19.8689 11.1028 19.8712 11.0984 19.8741C11.0813 19.8851 11.0641 19.8958 11.0461 19.9054C11.043 19.9069 11.0399 19.9083 11.037 19.9098C11.0174 19.9199 10.9974 19.9297 10.9768 19.9382C10.9751 19.939 10.9734 19.9394 10.9717 19.94C10.9499 19.9489 10.9278 19.957 10.9051 19.964C10.9032 19.9644 10.9014 19.9648 10.8997 19.9654C10.8771 19.9719 10.8544 19.9779 10.8312 19.9825C10.826 19.9835 10.8207 19.984 10.8153 19.9849C10.7957 19.9884 10.7758 19.9918 10.7555 19.9939C10.7297 19.9965 10.7038 19.9979 10.6777 19.9979L3.3753 20C1.65182 20 0.25 18.5982 0.25 16.875V3.125C0.25 1.40182 1.65182 0 3.375 0H12.9801C14.7031 0 16.1051 1.40182 16.1051 3.125L16.106 10.6639C16.106 11.0954 15.7563 11.4453 15.3248 11.4453C14.8932 11.4453 14.5435 11.0956 14.5435 10.6642L14.5426 3.12515C14.5426 2.26349 13.8416 1.5625 12.9801 1.5625H3.375C2.51349 1.5625 1.8125 2.26349 1.8125 3.125V16.875C1.8125 17.7365 2.51349 18.4375 3.375 18.4375L9.8963 18.4355V16.5256C9.8963 15.0179 11.123 13.7912 12.6307 13.7912H15.3255C15.3515 13.7912 15.3774 13.7926 15.4033 13.7952C15.4145 13.7962 15.4252 13.7984 15.4362 13.7999C15.4503 13.8019 15.4645 13.8036 15.4787 13.8065C15.492 13.8091 15.5048 13.8127 15.5179 13.8161C15.5295 13.819 15.5413 13.8214 15.5527 13.8251C15.5659 13.829 15.5785 13.8339 15.5913 13.8385C15.6025 13.8425 15.6138 13.8461 15.6248 13.8507C15.6371 13.8559 15.649 13.8618 15.6609 13.8676C15.6721 13.8728 15.6832 13.8777 15.6939 13.8834C15.7059 13.8899 15.7174 13.8972 15.7291 13.9043C15.7392 13.9104 15.7494 13.916 15.7593 13.9227C15.7732 13.9319 15.7865 13.9423 15.7998 13.9523C15.8066 13.9577 15.814 13.9624 15.8207 13.968C15.861 14.001 15.8979 14.0379 15.9308 14.0782C15.9359 14.0845 15.9403 14.0912 15.9453 14.0976C15.9559 14.1115 15.9666 14.1252 15.9762 14.1397C15.9821 14.1486 15.9872 14.1579 15.9928 14.167C16.0006 14.1797 16.0084 14.1922 16.0155 14.2053C16.0206 14.2149 16.0248 14.2247 16.0294 14.2343C16.0358 14.2477 16.0424 14.261 16.0482 14.2747C16.052 14.2841 16.0551 14.2935 16.0584 14.3028C16.0639 14.3175 16.0694 14.332 16.0738 14.3469C16.0766 14.3559 16.0786 14.3651 16.0808 14.3741C16.085 14.3898 16.0892 14.4052 16.0923 14.4211C16.0941 14.4307 16.0952 14.4405 16.0967 14.4501C16.0991 14.4655 16.1019 14.4809 16.1034 14.4966C16.1048 14.5103 16.1049 14.5239 16.1056 14.5377C16.106 14.5493 16.1072 14.5607 16.1072 14.5726C16.1072 14.584 16.106 14.5952 16.1056 14.6065C16.1049 14.6205 16.1048 14.6347 16.1034 14.6487C16.1019 14.6648 16.099 14.6803 16.0966 14.696C16.095 14.7055 16.0941 14.715 16.0923 14.7243C16.0891 14.7404 16.0848 14.756 16.0807 14.7717C16.0782 14.7806 16.0764 14.7896 16.0738 14.7984C16.0692 14.8135 16.0636 14.8282 16.0583 14.8428C16.0549 14.8521 16.0518 14.8615 16.048 14.8708C16.0424 14.8845 16.0357 14.8978 16.0293 14.9112C16.0247 14.9208 16.0204 14.9306 16.0154 14.94C16.0084 14.9533 16.0004 14.9658 15.9926 14.9785C15.9872 14.9876 15.982 14.9968 15.9762 15.0058C15.9662 15.0206 15.9553 15.0346 15.9444 15.0487C15.9397 15.0548 15.9356 15.0612 15.9307 15.0673C15.9138 15.0876 15.8959 15.1073 15.8773 15.126ZM11.4588 16.5256V17.3317L13.4385 15.3537H12.6307C11.9845 15.3537 11.4588 15.8795 11.4588 16.5256ZM10.6333 10.9375H5.64795C5.25656 10.9375 4.8905 10.7634 4.64346 10.4597C4.3952 10.1547 4.29892 9.75876 4.37903 9.37317C4.60074 8.30551 5.2648 7.41577 6.15332 6.87897C5.85593 6.47217 5.67969 5.97122 5.67969 5.42969C5.67969 4.07272 6.78366 2.96875 8.14062 2.96875C9.49759 2.96875 10.6016 4.07272 10.6016 5.42969C10.6016 5.97122 10.4253 6.47217 10.1278 6.87897C11.0164 7.41577 11.6804 8.30551 11.9022 9.37317C11.9823 9.75876 11.8859 10.1547 11.6378 10.4597C11.3907 10.7634 11.0247 10.9375 10.6333 10.9375ZM7.24219 5.42969C7.24219 5.92514 7.64517 6.32812 8.14062 6.32812C8.63608 6.32812 9.03906 5.92514 9.03906 5.42969C9.03906 4.93423 8.63608 4.53125 8.14062 4.53125C7.64517 4.53125 7.24219 4.93423 7.24219 5.42969ZM10.2822 9.375C9.96054 8.49838 9.1149 7.89062 8.16107 7.89062H8.12018C7.16635 7.89062 6.32071 8.49838 5.99905 9.375H10.2822Z" fill="white"/>
</svg>
