<svg width="23" height="22" viewBox="0 0 23 22" fill="none" xmlns="http://www.w3.org/2000/svg">
<path d="M22.75 11C22.75 4.92043 17.8302 0 11.75 0C5.67043 0 0.75 4.91975 0.75 11C0.75 17.0257 5.62863 22 11.75 22C17.8462 22 22.75 17.0534 22.75 11ZM11.75 1.28906C17.1046 1.28906 21.4609 5.64536 21.4609 11C21.4609 12.9588 20.8783 14.8415 19.7979 16.4362C15.4594 11.7694 8.04848 11.761 3.70209 16.4362C2.62166 14.8415 2.03906 12.9588 2.03906 11C2.03906 5.64536 6.39536 1.28906 11.75 1.28906ZM4.50607 17.4668C8.36353 13.14 15.1375 13.1411 18.9938 17.4668C15.1234 21.7969 8.37813 21.7982 4.50607 17.4668Z" fill="white"/>
<path d="M11.75 11.6445C13.8823 11.6445 15.6172 9.90967 15.6172 7.77734V6.48828C15.6172 4.35596 13.8823 2.62109 11.75 2.62109C9.61768 2.62109 7.88281 4.35596 7.88281 6.48828V7.77734C7.88281 9.90967 9.61768 11.6445 11.75 11.6445ZM9.17188 6.48828C9.17188 5.06662 10.3283 3.91016 11.75 3.91016C13.1717 3.91016 14.3281 5.06662 14.3281 6.48828V7.77734C14.3281 9.19901 13.1717 10.3555 11.75 10.3555C10.3283 10.3555 9.17188 9.19901 9.17188 7.77734V6.48828Z" fill="white"/>
</svg>
