<svg width="23" height="20" viewBox="0 0 23 20" fill="none" xmlns="http://www.w3.org/2000/svg">
<path d="M19.4107 5.29283V3.125C19.4107 2.77983 19.1221 2.5 18.766 2.5H12.9644V0.625C12.9644 0.279833 12.6757 0 12.3196 0H7.15949C6.80341 0 6.51474 0.279833 6.51474 0.625V2.5H0.713105C0.357023 2.5 0.0683594 2.77983 0.0683594 3.125V17.8542C0.0683594 18.1993 0.357023 18.4792 0.713105 18.4792H15.9427C16.114 19.3442 16.9002 20 17.8419 20C18.9084 20 19.7761 19.1589 19.7761 18.125V12.7545C22.9958 11.1541 22.7779 6.59 19.4107 5.29283ZM7.80424 1.25H11.6749V2.5H7.80424V1.25ZM1.35785 3.75H18.1212V5.01188C15.811 4.86504 13.8233 6.52767 13.6265 8.75C11.2987 8.75 4.75719 8.75 2.43246 8.75C1.83992 8.75 1.35789 8.28271 1.35789 7.70833L1.35785 3.75ZM9.0948 10H10.3843V11.25H9.0948V10ZM1.35785 9.74854C1.6805 9.90888 2.04561 10 2.43241 10H7.80531V11.875C7.80531 12.2202 8.09397 12.5 8.45006 12.5H11.029C11.3851 12.5 11.6738 12.2202 11.6738 11.875V10H13.7125C13.9896 11.2095 14.8064 12.2072 15.9076 12.7545V17.2292H1.35785V9.74854ZM17.8419 18.75C17.4863 18.75 17.1971 18.4696 17.1971 18.125V15.6271H18.4866V18.125C18.4866 18.4696 18.1974 18.75 17.8419 18.75ZM18.4866 14.3771H17.1971V13.1583C17.6174 13.2205 18.0406 13.2243 18.4866 13.1583V14.3771ZM17.8419 11.9583C16.2146 11.9583 14.8975 10.6818 14.8975 9.10417C14.8975 7.52671 16.2144 6.25 17.8419 6.25C19.4692 6.25 20.7862 7.52654 20.7862 9.10417C20.7862 10.6816 19.4693 11.9583 17.8419 11.9583Z" fill="#001F42"/>
</svg>
