<svg width="19" height="20" viewBox="0 0 19 20" fill="none" xmlns="http://www.w3.org/2000/svg">
<path d="M17.6202 0H1.71044C1.30029 0 0.967773 0.262344 0.967773 0.585938V19.4141C0.967773 19.6511 1.14874 19.8647 1.42625 19.9554C1.51814 19.9854 1.61464 20 1.7103 20C1.90359 20 2.09352 19.9405 2.23561 19.8284L9.66545 13.9666L17.095 19.8284C17.3074 19.9959 17.6268 20.0461 17.9043 19.9554C18.1819 19.8647 18.3628 19.6511 18.3628 19.4141V0.585938C18.3628 0.262344 18.0303 0 17.6202 0ZM9.6654 12.552C9.46844 12.552 9.27955 12.6138 9.14028 12.7237L2.45312 17.9995V1.17188H16.8774V17.9994L10.1906 12.7237C10.0513 12.6138 9.8624 12.552 9.6654 12.552Z" fill="#001F42"/>
</svg>
