<svg width="20" height="20" viewBox="0 0 20 20" fill="none" xmlns="http://www.w3.org/2000/svg">
<circle cx="10" cy="10" r="9.5" stroke="#001F42"/>
<path d="M9 14C9 13.4477 9.44772 13 10 13C10.5523 13 11 13.4477 11 14C11 14.5523 10.5523 15 10 15C9.44772 15 9 14.5523 9 14Z" fill="#001F42"/>
<path d="M11.5 6.78146C11.5 7.1764 11.3266 7.54093 11.0117 7.80802L9.25 9.30306V11H10.75V9.91549L12.0244 8.83405C12.6443 8.308 13 7.55994 13 6.78146C13 5.24767 11.6543 4 10 4C8.3457 4 7 5.24767 7 6.78146H8.5C8.5 6.01456 9.17285 5.39073 10 5.39073C10.8271 5.39073 11.5 6.01456 11.5 6.78146Z" fill="#001F42"/>
</svg>
