<svg width="16" height="22" viewBox="0 0 16 22" fill="none" xmlns="http://www.w3.org/2000/svg">
<path d="M15.1017 0H1.53503C0.725065 0 0.0683594 0.656706 0.0683594 1.46667V21.6333C0.0683594 21.8358 0.232536 22 0.435026 22H15.1017C15.3042 22 15.4684 21.8358 15.4684 21.6333V0.366667C15.4684 0.164176 15.3042 0 15.1017 0ZM13.2684 14.3C13.2676 14.4046 13.2605 14.5091 13.2467 14.6128C13.2431 14.6414 13.2386 14.6695 13.2338 14.6978C13.2207 14.7814 13.2034 14.8641 13.1819 14.9461C13.1763 14.9673 13.1719 14.9886 13.1661 15.0095C13.1395 15.0983 13.1081 15.1859 13.0721 15.2713C13.0089 15.2355 12.9436 15.2036 12.8764 15.1757L12.8664 15.1708C12.7688 15.1316 12.668 15.1012 12.5651 15.0795C12.5399 15.074 12.5141 15.069 12.4885 15.0645C12.3828 15.0448 12.2758 15.0344 12.1684 15.0333H11.435C11.2325 15.0333 11.0684 14.8692 11.0684 14.6667V14.2633C11.075 14.2633 11.0812 14.259 11.0879 14.2574C11.1921 14.2348 11.2941 14.203 11.3928 14.1625C11.4295 14.1482 11.4603 14.1288 11.4945 14.1122C11.5623 14.081 11.6282 14.0458 11.6918 14.0067C11.7283 13.9833 11.7618 13.9564 11.7961 13.9305C11.8509 13.89 11.9036 13.8467 11.9535 13.8007C11.9861 13.7699 12.0165 13.7378 12.047 13.7049C12.0923 13.6556 12.1349 13.6041 12.1746 13.5502C12.2013 13.5135 12.2271 13.4768 12.2509 13.4401C12.2872 13.381 12.3202 13.3198 12.3495 13.2568C12.3682 13.2179 12.388 13.1801 12.4042 13.1398C12.4314 13.0681 12.4541 12.9946 12.472 12.9198C12.4815 12.8833 12.494 12.8491 12.5014 12.8117C12.5234 12.698 12.5347 12.5825 12.535 12.4667V11C12.535 10.7975 12.3708 10.6333 12.1684 10.6333C11.7634 10.6333 11.435 10.305 11.435 9.9C11.435 9.69751 11.2708 9.53333 11.0684 9.53333C10.8659 9.53333 10.7017 9.69751 10.7017 9.9C10.7017 10.5075 10.2092 11 9.60169 11H7.76836C7.56587 11 7.40169 11.1642 7.40169 11.3667V12.4667C7.40277 12.5838 7.41494 12.7003 7.43839 12.8151C7.44574 12.8516 7.45809 12.8883 7.46776 12.925C7.48566 12.9991 7.5084 13.072 7.53561 13.1432C7.55172 13.1835 7.57213 13.2213 7.59022 13.2602C7.61958 13.3225 7.65252 13.383 7.68887 13.4417C7.71268 13.4782 7.73864 13.5149 7.76514 13.5516C7.8047 13.6055 7.84731 13.6571 7.89261 13.7063C7.92305 13.7394 7.95348 13.7713 7.98625 13.8021C8.03602 13.8481 8.08848 13.8916 8.14308 13.9319C8.17799 13.9579 8.2113 13.9847 8.248 14.0082C8.31048 14.0472 8.37547 14.0825 8.44225 14.1138C8.47645 14.1303 8.50867 14.1503 8.54394 14.1643C8.64259 14.2049 8.74465 14.2366 8.84884 14.2594C8.85547 14.2594 8.86173 14.2637 8.86836 14.2651V14.6667C8.86836 14.8692 8.70418 15.0333 8.50169 15.0333H7.76836C7.66112 15.0344 7.55405 15.0448 7.4486 15.0645C7.423 15.069 7.39757 15.074 7.37197 15.0795C7.26903 15.1012 7.16823 15.1316 7.07065 15.1708L7.06063 15.1757C6.99349 15.2036 6.92814 15.2355 6.86494 15.2713C6.82895 15.1859 6.79762 15.0983 6.77095 15.0095C6.76486 14.9886 6.76074 14.9669 6.75519 14.9461C6.73371 14.8641 6.71634 14.7814 6.70327 14.6978C6.6988 14.6695 6.69396 14.6414 6.69038 14.6128C6.67659 14.5091 6.66925 14.4046 6.66836 14.3V11.3667C6.66836 9.54408 8.14577 8.06667 9.96836 8.06667C11.7909 8.06667 13.2684 9.54408 13.2684 11.3667V14.3ZM11.6964 15.8619C11.6774 15.9026 11.6561 15.9421 11.6323 15.9801C11.6212 15.998 11.6103 16.0168 11.5981 16.0333C11.5673 16.0766 11.5333 16.1176 11.4966 16.1561C11.4889 16.1641 11.4826 16.1733 11.4746 16.181C11.4293 16.2259 11.3802 16.2667 11.328 16.3031C11.3133 16.3134 11.2975 16.3215 11.2821 16.331C11.2422 16.3561 11.2007 16.3786 11.1579 16.3985C11.1376 16.4076 11.1174 16.416 11.097 16.4237C11.0537 16.4402 11.0095 16.454 10.9645 16.4647C10.9445 16.4696 10.925 16.4755 10.9045 16.4794C10.8376 16.4927 10.7697 16.4995 10.7017 16.5H9.23503C9.16717 16.4995 9.09949 16.4925 9.03307 16.4794C9.01248 16.4758 8.99297 16.4699 8.97292 16.4647C8.92798 16.454 8.88376 16.4402 8.84043 16.4237C8.82002 16.4157 8.79943 16.4076 8.77956 16.3985C8.73677 16.3786 8.69523 16.3561 8.65531 16.331C8.64027 16.3215 8.62415 16.3134 8.60947 16.3031C8.55719 16.2667 8.50814 16.2259 8.46284 16.181C8.45514 16.1733 8.44852 16.1641 8.44082 16.1561C8.40412 16.1176 8.3701 16.0766 8.33931 16.0333C8.32713 16.0161 8.31657 15.9965 8.30511 15.9801C8.2813 15.9419 8.25999 15.9024 8.24102 15.8616C8.23188 15.8419 8.22257 15.8223 8.21452 15.8023C8.21022 15.7908 8.20771 15.7785 8.2036 15.7656H8.50169C9.10916 15.7656 9.60169 15.2731 9.60169 14.6656V14.3H10.335V14.6667C10.335 15.2741 10.8276 15.7667 11.435 15.7667H11.7342C11.7303 15.7785 11.7276 15.7908 11.7233 15.8034C11.7152 15.8223 11.7055 15.8422 11.6964 15.8619ZM8.13503 11.7333H9.60169C9.71252 11.7323 9.82298 11.7212 9.93166 11.7C9.95439 11.6959 9.97713 11.692 9.99987 11.6868C10.1019 11.6644 10.202 11.6333 10.2987 11.5937C10.3148 11.5871 10.3302 11.5786 10.3459 11.5717C10.4324 11.533 10.5157 11.4879 10.595 11.4363C10.6093 11.4272 10.624 11.4191 10.638 11.4096C10.7219 11.3513 10.8011 11.2859 10.8745 11.2145C10.8906 11.1991 10.9056 11.183 10.921 11.1669C10.9942 11.0922 11.0608 11.0115 11.1205 10.9255L11.1278 10.9321C11.1348 10.9391 11.1425 10.945 11.1498 10.9517C11.2034 11.003 11.2606 11.0503 11.3213 11.0931C11.3405 11.1067 11.358 11.1196 11.3793 11.1323C11.442 11.1729 11.5077 11.2086 11.5757 11.239C11.5854 11.2435 11.5942 11.249 11.6037 11.253C11.668 11.28 11.7338 11.3026 11.8013 11.3201V12.4667C11.8013 13.0741 11.3088 13.5667 10.7013 13.5667H9.23503C8.62755 13.5667 8.13503 13.0741 8.13503 12.4667V11.7333ZM6.23867 16.298C6.51815 16.6746 6.6689 17.1311 6.66836 17.6C6.66818 18.1758 6.44241 18.7286 6.03958 19.1401C5.39469 19.7998 4.40677 19.9873 3.56512 19.6095C2.72347 19.2317 2.20695 18.369 2.2714 17.4487C2.33586 16.5283 2.96768 15.7461 3.85391 15.4893C4.73996 15.2326 5.69225 15.5561 6.23867 16.2995V16.298ZM6.66836 19.5386C6.69324 19.5103 6.71204 19.4777 6.73586 19.4484C6.79118 19.3805 6.84399 19.3112 6.89269 19.2391C6.92725 19.1884 6.95947 19.1367 6.99062 19.0842C7.03467 19.011 7.07459 18.9327 7.11201 18.8543C7.12777 18.8214 7.14871 18.791 7.16339 18.7571C7.16966 18.7648 7.17467 18.7738 7.18094 18.7818C7.20762 18.8169 7.23214 18.8536 7.25435 18.8917C7.26383 18.9079 7.27189 18.925 7.28066 18.9421C7.29785 18.9754 7.31325 19.0094 7.32686 19.0443C7.3342 19.0625 7.34082 19.081 7.34709 19.1003C7.3589 19.1372 7.36857 19.1746 7.37645 19.2126C7.38003 19.2298 7.3845 19.2471 7.38737 19.2647C7.3965 19.3204 7.40133 19.3768 7.40169 19.4333V21.2667H6.66836V19.5386ZM8.13503 19.4333C8.13467 19.3542 8.12912 19.2752 8.11855 19.1968C8.11515 19.1719 8.10942 19.1474 8.10495 19.1234C8.09582 19.0711 8.08597 19.019 8.07236 18.968C8.06466 18.9397 8.05553 18.9123 8.04658 18.8844C8.03208 18.8379 8.01579 18.792 7.99753 18.7473C7.98625 18.7195 7.97407 18.6923 7.96082 18.6651C7.94041 18.6212 7.91803 18.5786 7.89368 18.5369C7.879 18.5115 7.86486 18.4862 7.8491 18.4613C7.82153 18.4184 7.79181 18.3774 7.76102 18.3366C7.7449 18.3158 7.72987 18.2941 7.71304 18.2735C7.67293 18.2261 7.63068 18.1808 7.5861 18.1375C7.57518 18.1265 7.56515 18.1144 7.55387 18.1038C7.49873 18.0521 7.44036 18.0039 7.37931 17.9593C7.37931 17.9516 7.37931 17.9439 7.37931 17.9359C7.411 17.6806 7.40635 17.422 7.36571 17.168C7.35872 17.1214 7.34673 17.0763 7.3376 17.0305C7.31934 16.9351 7.29642 16.8407 7.26867 16.7474C7.25238 16.6955 7.23197 16.6448 7.21424 16.5935C7.18273 16.5084 7.14836 16.4248 7.10879 16.3426C7.08444 16.2921 7.0592 16.2425 7.03216 16.1935C7.01444 16.162 7.00172 16.1285 6.98293 16.0973L6.99098 16.0882C7.04989 16.0306 7.11506 15.9799 7.18542 15.9368C7.20744 15.9228 7.23125 15.9122 7.25435 15.9C7.3034 15.8736 7.35461 15.851 7.40724 15.8324C7.42067 15.8275 7.43464 15.8238 7.4486 15.8198C7.47187 15.9201 7.50374 16.0182 7.54367 16.1131C7.54761 16.1224 7.55351 16.1308 7.55745 16.14C7.5981 16.2322 7.64644 16.3208 7.70158 16.4051C7.72181 16.4359 7.74598 16.4633 7.768 16.4927C7.81133 16.5521 7.85824 16.609 7.90837 16.6627C7.93737 16.6932 7.96816 16.7208 7.99896 16.749C8.04945 16.7958 8.10262 16.8395 8.15812 16.8803C8.19482 16.9059 8.22812 16.9297 8.26519 16.9535C8.32445 16.9902 8.3855 17.0233 8.44852 17.0529C8.48522 17.0713 8.52407 17.0896 8.56364 17.1057C8.63472 17.1329 8.70758 17.1555 8.78153 17.1735C8.81805 17.1827 8.85189 17.1948 8.88859 17.2022C9.00282 17.2235 9.11883 17.2341 9.23503 17.2333H10.7017C10.8179 17.2321 10.9335 17.2199 11.0474 17.1966C11.0841 17.1896 11.1187 17.1777 11.1541 17.1685C11.2281 17.1504 11.3009 17.1277 11.372 17.1007C11.4116 17.0849 11.4486 17.0661 11.4868 17.0482C11.5496 17.0185 11.6108 16.9854 11.6701 16.9488C11.7068 16.9257 11.7433 16.9019 11.7772 16.8754C11.8327 16.8348 11.8857 16.7909 11.9363 16.7442C11.9671 16.7159 11.9983 16.6885 12.0267 16.6581C12.0772 16.6049 12.1245 16.5489 12.1684 16.4902C12.1904 16.4608 12.2142 16.4332 12.2344 16.4024C12.2896 16.3181 12.3379 16.2293 12.3785 16.1369C12.3825 16.1278 12.3884 16.1197 12.3923 16.1106C12.4323 16.0157 12.4641 15.9176 12.4874 15.8173C12.5014 15.8213 12.5152 15.825 12.5288 15.8297C12.5814 15.8483 12.6326 15.871 12.6817 15.8975C12.7048 15.9097 12.7286 15.9203 12.7506 15.9342C13.0748 16.1328 13.2712 16.4866 13.2684 16.8667V17.6367C13.2617 17.6367 13.2555 17.641 13.2488 17.6426C13.1446 17.6652 13.0426 17.697 12.9439 17.7375C12.9072 17.7518 12.8764 17.7712 12.8423 17.7882C12.7755 17.8193 12.7105 17.8546 12.648 17.8936C12.6113 17.9173 12.578 17.9439 12.5431 17.9699C12.4885 18.0104 12.436 18.0537 12.3862 18.0997C12.3535 18.1305 12.323 18.1625 12.2926 18.1955C12.2473 18.2447 12.2047 18.2963 12.1651 18.3502C12.1383 18.3869 12.1127 18.4236 12.0889 18.4603C12.0525 18.5188 12.0196 18.5793 11.9902 18.6416C11.9714 18.6805 11.9514 18.7183 11.9356 18.7587C11.9084 18.83 11.8857 18.9027 11.8678 18.9768C11.8581 19.0135 11.8457 19.048 11.8384 19.0869C11.8151 19.2009 11.8028 19.317 11.8017 19.4333V21.2667H8.13503V19.4333ZM12.535 19.4333C12.5356 19.3655 12.5425 19.2978 12.5556 19.2314C12.5592 19.2108 12.5651 19.1913 12.5703 19.1712C12.581 19.1263 12.5948 19.0821 12.6113 19.0387C12.6194 19.0183 12.6274 18.9977 12.6365 18.9779C12.6564 18.9351 12.679 18.8935 12.704 18.8536C12.7135 18.8386 12.7216 18.8225 12.732 18.8081C12.7683 18.7559 12.8091 18.7068 12.8541 18.6615C12.8614 18.6538 12.8702 18.6479 12.8779 18.6406C12.9167 18.6033 12.9583 18.5691 13.0021 18.538C13.019 18.5262 13.0367 18.5156 13.0539 18.5045C13.0925 18.4801 13.1326 18.4583 13.1742 18.439C13.1932 18.4302 13.2107 18.4214 13.2313 18.4137C13.2431 18.4089 13.2558 18.4067 13.268 18.4023V21.2667H12.535V19.4333ZM14.735 21.2667H14.0017V16.8667C14.0008 16.7558 13.9899 16.6454 13.9691 16.5367C13.9628 16.5025 13.953 16.4699 13.9449 16.4363C13.9274 16.3623 13.9052 16.2895 13.8785 16.2184C13.8645 16.1817 13.8499 16.1451 13.8338 16.1113C13.8026 16.0435 13.7672 15.9776 13.7278 15.914C13.7088 15.8832 13.6911 15.8517 13.6707 15.8216C13.6622 15.8096 13.656 15.7957 13.6472 15.7849C13.6633 15.7534 13.6742 15.7201 13.6893 15.6879C13.7124 15.6383 13.734 15.5885 13.7546 15.5379C13.7879 15.4553 13.8176 15.3721 13.8443 15.2877C13.8606 15.2373 13.8771 15.1869 13.8902 15.1356C13.9145 15.0435 13.9328 14.9522 13.9489 14.857C13.9566 14.8122 13.9668 14.7678 13.9727 14.7227C13.9915 14.5827 14.0012 14.4414 14.0017 14.3V11.3667C14.0017 9.1391 12.1959 7.33333 9.96836 7.33333C7.74079 7.33333 5.93503 9.1391 5.93503 11.3667V14.3C5.93538 14.4454 5.94541 14.5908 5.9651 14.7349C5.97173 14.7829 5.98408 14.8298 5.99303 14.8779C6.00807 14.9615 6.02007 15.0462 6.04173 15.1282C6.01828 15.1132 5.99214 15.1026 5.96833 15.0883C5.88883 15.0407 5.80809 14.9956 5.72448 14.956C5.68384 14.9365 5.64212 14.9193 5.60059 14.9017C5.52324 14.869 5.44482 14.8394 5.36444 14.8133C5.32057 14.799 5.27653 14.7852 5.23177 14.773C5.14709 14.7499 5.06097 14.732 4.97503 14.7166C4.93511 14.7093 4.89554 14.7003 4.8549 14.695C4.72671 14.6769 4.59762 14.6674 4.46836 14.6667C2.84826 14.6667 1.53503 15.9799 1.53503 17.6C1.53503 19.2201 2.84826 20.5333 4.46836 20.5333C4.58563 20.5326 4.70254 20.5251 4.81891 20.5106C4.85329 20.5065 4.88713 20.5007 4.92114 20.4952C5.00529 20.4823 5.08836 20.4657 5.17054 20.4458C5.20456 20.4372 5.23839 20.4295 5.27205 20.42C5.3716 20.3919 5.46953 20.3586 5.56549 20.3199C5.57606 20.3154 5.58698 20.3126 5.59772 20.3083C5.70264 20.2637 5.80487 20.213 5.90387 20.1565C5.91372 20.1509 5.92446 20.1468 5.93431 20.1414V21.2667H0.801693V2.73639C0.851107 2.76486 0.902132 2.79028 0.95459 2.81266L0.967122 2.81893C1.04554 2.85116 1.12682 2.8764 1.20972 2.89448C1.23031 2.89932 1.2509 2.90326 1.27184 2.90702C1.3585 2.92367 1.44658 2.93262 1.53503 2.93333H14.735V21.2667ZM14.735 1.83333V2.2H1.53503C1.13005 2.2 0.801693 1.87165 0.801693 1.46667C0.801693 1.06169 1.13005 0.733333 1.53503 0.733333H14.735V1.1H1.53503V1.83333H14.735Z" fill="#001F42"/>
<path d="M1.53516 6.23329C1.53516 6.43578 1.69933 6.59996 1.90182 6.59996H13.6352C13.8376 6.59996 14.0018 6.43578 14.0018 6.23329V4.03329C14.0018 3.8308 13.8376 3.66663 13.6352 3.66663H1.90182C1.69933 3.66663 1.53516 3.8308 1.53516 4.03329V6.23329ZM2.26849 4.39996H13.2685V5.86663H2.26849V4.39996Z" fill="#001F42"/>
<path d="M1.53516 7.33337H5.93516V8.06671H1.53516V7.33337Z" fill="#001F42"/>
<path d="M2.26855 8.80005H5.20189V9.53338H2.26855V8.80005Z" fill="#001F42"/>
<path d="M1.53516 10.2667H3.73516V11.0001H1.53516V10.2667Z" fill="#001F42"/>
<path d="M4.46875 10.2667H5.20208V11.0001H4.46875V10.2667Z" fill="#001F42"/>
<path d="M3.73535 16.1333H5.20202V16.8666H3.73535V16.1333Z" fill="#001F42"/>
<path d="M3.00195 17.6H5.93529V18.3333H3.00195V17.6Z" fill="#001F42"/>
<path d="M1.53516 11.7333H5.20182V12.4666H1.53516V11.7333Z" fill="#001F42"/>
<path d="M1.53516 13.2H4.46849V13.9333H1.53516V13.2Z" fill="#001F42"/>
</svg>
