<svg width="42" height="40" viewBox="0 0 42 40" fill="none" xmlns="http://www.w3.org/2000/svg">
<path d="M0.444305 33.4068L26.4468 19.5926C26.8002 19.4056 27.1931 19.3054 27.593 19.3005C27.9928 19.2955 28.3881 19.3859 28.746 19.5642L40.4317 25.4079C40.8494 25.615 41.2007 25.935 41.4458 26.3316C41.6909 26.7282 41.82 27.1856 41.8183 27.6518V37.4908C41.8183 38.1563 41.554 38.7945 41.0834 39.265C40.6129 39.7355 39.9747 39.9999 39.3093 39.9999H2.50929C1.84383 39.9999 1.20564 39.7355 0.735096 39.265C0.264549 38.7945 0.000198364 38.1563 0.000198364 37.4908V34.1454C0.000228882 33.9935 0.0415802 33.8446 0.119816 33.7145C0.198051 33.5844 0.310226 33.478 0.444305 33.4068Z" fill="#FF4B55"/>
<path d="M-0.000319481 31.7482V28.381C-0.00142765 27.9553 0.106337 27.5363 0.312736 27.1639C0.519135 26.7915 0.817314 26.4781 1.17895 26.2533L6.3644 23.0133C6.69897 22.8058 7.07741 22.6795 7.4695 22.6444C7.86158 22.6092 8.25646 22.6662 8.62258 22.8109L13.2979 24.6818L-0.000319481 31.7482Z" fill="#FFB800"/>
<path d="M33.3555 4.41384C33.3075 4.24592 33.3075 4.06574 33.3671 3.90974C32.8511 3.29697 32.1423 3.17708 31.4219 3.46524C31.5898 4.51024 32.4672 4.71426 33.3555 4.41384Z" fill="#001F42"/>
<path d="M7.49156 16.4953C6.6271 17.2886 7.09544 18.1289 7.44354 18.9092C8.24806 18.1888 8.78861 17.5165 7.91188 16.4718C7.94798 15.126 7.86385 12.3283 8.44051 11.2114C8.45208 11.1034 8.45208 10.9951 8.46435 10.8871C8.51237 10.3473 8.60808 9.85441 8.77634 9.43445C6.93944 10.2986 7.4197 14.7902 7.49156 16.4953Z" fill="#001F42"/>
<path d="M39.5507 4.83452C39.2506 5.35088 38.5898 4.79841 37.5448 4.99051C37.2209 5.05046 37.3169 4.79841 37.4733 4.77422C38.4818 4.43804 38.9502 5.20681 39.4066 4.60596C39.6825 4.27013 40.0071 4.44996 40.0905 4.87063C40.0905 4.88254 40.079 4.90638 40.079 4.93022C39.9345 4.7262 39.7186 4.53409 39.5507 4.83452ZM39.2261 3.71765C39.4427 3.64544 39.5871 3.69347 39.6951 3.81371C39.5745 3.80179 39.4427 3.76568 39.3347 3.83754C39.2506 3.92168 39.1542 3.95778 39.0582 3.9697C38.1337 4.02965 38.8061 2.97273 39.2261 3.71765ZM31.4098 17.601C31.4932 17.276 31.5293 16.9521 31.4813 16.6037C35.1796 15.2824 36.104 11.9438 36.837 8.22122C36.4406 12.2687 35.8881 15.2586 31.4098 17.601ZM14.9597 15.7869C15.6201 13.9139 16.0047 11.9083 16.2441 9.84218C16.3766 11.1396 16.4485 12.4366 16.3647 13.7694C16.1246 17.276 24.7573 17.7924 25.7781 16.4719C26.1865 15.9194 26.4266 15.247 26.583 14.5263C26.7025 15.7269 26.7989 17.0001 26.8585 18.3333C22.2361 18.7533 18.3457 17.757 14.9597 15.7869ZM14.8878 2.55311C14.6838 2.829 14.4913 2.84127 14.3353 2.51701C14.1913 2.58887 14.0594 2.60114 13.9511 2.52928C14.0349 2.20466 14.0952 1.86848 14.1551 1.50811C14.3234 0.175305 16.8085 -0.125119 17.3375 1.21996C17.4574 1.61643 17.5769 1.9768 17.6975 2.31263C17.4809 2.62498 17.2169 2.70911 16.893 2.40904C16.5925 2.829 16.2441 2.86511 15.8841 2.54119C15.5356 2.96151 15.2117 2.9254 14.8878 2.55311ZM22.7286 2.50474C23.0165 1.66411 23.0526 1.11164 23.8574 0.643646C24.8299 0.0669844 26.0666 0.547243 26.2587 2.60114C26.0785 2.91313 25.85 2.91313 25.5622 2.55311C25.2737 3.06948 24.9624 3.10524 24.6258 2.68527C24.3254 3.06948 24.0615 3.03337 23.821 2.69719C23.3891 3.06948 23.1251 2.98535 22.9807 2.54119C22.8966 2.58887 22.8121 2.58887 22.7167 2.51701L22.7286 2.50474ZM37.3054 3.16553C36.6204 3.28577 36.0921 2.94924 35.7083 2.56503C34.3274 1.91651 33.403 2.24077 32.7668 3.05756C33.0907 3.16553 33.3911 3.3699 33.6435 3.66998L33.763 3.82597L33.7031 4.00616C33.6789 4.11413 33.6789 4.21053 33.7031 4.3185L33.7995 4.65503L33.4745 4.76301C32.9105 4.94284 32.3461 4.94284 31.9142 4.73882C31.2173 5.97557 31.4098 7.47664 31.2899 8.9658C31.1574 10.083 30.7735 10.083 30.1604 9.12179C29.3801 7.84963 28.3477 6.90033 27.1589 6.15576C26.7025 5.075 26.5346 3.86208 26.4747 2.61306C26.3667 0.331302 24.9133 -0.209252 23.7849 0.391247C22.8966 0.859938 22.8601 1.40014 22.5246 2.24077C20.591 7.12889 18.8981 5.29129 17.6495 1.05204C17.0129 -0.569622 14.0233 -0.209252 13.819 1.40014C13.3748 4.17443 12.4623 6.17959 10.0127 8.2696C9.24424 8.78596 8.90841 9.72264 8.812 10.8879C8.39204 15.6912 10.9493 16.652 9.26807 22.4888C8.71595 23.173 8.69211 24.1823 9.12435 25.4671C9.40058 27.4607 9.68839 29.4546 9.97654 31.4482C10.0249 31.9646 10.1448 32.4329 11.0335 32.4329H13.3149C13.1466 31.844 12.7144 31.4601 11.6217 31.58C11.3816 30.3794 11.1414 29.1903 10.9132 27.989C10.8771 25.683 11.2736 23.5695 11.8979 21.5759C13.2907 20.1348 14.3595 18.4297 14.9597 16.3762C18.3457 18.3452 22.2361 19.3425 26.8585 18.9222C26.8585 19.6549 26.787 20.3753 26.6426 21.0715C26.2465 22.8611 26.2945 22.9816 26.4151 24.8666C26.523 26.6923 26.631 28.5053 26.7506 30.331C26.7751 30.7394 26.7989 31.1478 26.8231 31.5562C26.8831 32.5528 26.691 32.4084 27.6872 32.4084H30.065C30.3409 31.6161 29.3681 31.3276 28.2877 31.0752C27.4709 28.2294 28.0238 24.0505 29.7885 21.7565C30.5449 20.7837 31.0014 19.4744 31.4098 18.1174C36.5005 15.4514 36.9089 11.9802 37.2689 7.02092C37.4134 6.14384 37.738 5.37542 39.3821 5.43537C39.971 5.43537 40.2711 5.14686 40.283 4.53479C39.9465 2.25304 38.6498 2.84127 37.3054 3.16553Z" fill="#001F42"/>
<path d="M15.3797 31.1355C14.5033 29.0574 14.2513 26.572 14.8398 23.7251C15.0919 22.5729 15.2363 19.6542 14.7673 17.9729C14.1552 19.3776 13.2907 20.6389 12.21 21.7676L12.1504 21.972C12.3541 22.6325 12.6065 23.2806 12.9185 23.9295C12.5823 27.0039 13.207 28.8769 14.0472 31.4594C14.1433 32.3116 14.3112 32.4921 15.2963 32.4921H17.1689C17.313 31.7356 16.4366 31.3995 15.3797 31.1355Z" fill="#001F42"/>
<path d="M25.5028 19.3541C24.374 19.3902 23.2456 19.3422 22.1522 19.1978C21.9009 20.7234 21.9843 22.3205 22.3689 23.8696C21.7684 26.776 22.0923 28.5891 21.7684 31.3995C21.6723 32.2401 21.7803 32.4206 22.7646 32.4206H24.6499C24.9629 31.6757 24.17 31.3273 23.173 31.063C23.3416 28.601 23.6294 26.1272 24.326 23.6652C24.9384 22.3205 25.3103 20.8433 25.5028 19.3541Z" fill="#001F42"/>
</svg>
