<svg width="22" height="21" viewBox="0 0 22 21" fill="none" xmlns="http://www.w3.org/2000/svg">
<path d="M20.4531 4.56904H15.7773V0.658996C15.7773 0.295054 15.5019 0 15.1621 0H0.683594C0.34382 0 0.0683594 0.295054 0.0683594 0.658996V17.705C0.0683594 19.5219 1.44833 21 3.14453 21H17.9922C19.6884 21 21.0684 19.5219 21.0684 17.705V5.22803C21.0684 4.86409 20.7929 4.56904 20.4531 4.56904ZM3.14453 19.682C2.12681 19.682 1.29883 18.7951 1.29883 17.705V1.31799H14.5469C14.5469 18.736 14.5391 17.7676 14.561 18.0159C14.6145 18.6269 14.8272 19.203 15.1635 19.682H3.14453ZM19.8379 17.705C19.8379 18.7951 19.0099 19.682 17.9922 19.682C17.8541 19.682 17.7586 19.682 17.623 19.682C16.6053 19.682 15.7773 18.7951 15.7773 17.705V5.88703H19.8379V17.705Z" fill="#001F42"/>
<path d="M12.5371 3.16309H3.34961C3.00984 3.16309 2.73438 3.45814 2.73438 3.82209C2.73438 4.18603 3.00984 4.48108 3.34961 4.48108H12.5371C12.8769 4.48108 13.1523 4.18603 13.1523 3.82209C13.1523 3.45814 12.8769 3.16309 12.5371 3.16309Z" fill="#001F42"/>
<path d="M12.5371 5.9751H3.34961C3.00984 5.9751 2.73438 6.27015 2.73438 6.63409C2.73438 6.99803 3.00984 7.29308 3.34961 7.29308H12.5371C12.8769 7.29308 13.1523 6.99803 13.1523 6.63409C13.1523 6.27015 12.8769 5.9751 12.5371 5.9751Z" fill="#001F42"/>
<path d="M12.5371 16.519H3.34961C3.00984 16.519 2.73438 16.8141 2.73438 17.178C2.73438 17.542 3.00984 17.837 3.34961 17.837H12.5371C12.8769 17.837 13.1523 17.542 13.1523 17.178C13.1523 16.8141 12.8769 16.519 12.5371 16.519Z" fill="#001F42"/>
<path d="M12.5371 8.78662H7.94336C7.60359 8.78662 7.32812 9.08168 7.32812 9.44562V14.3661C7.32812 14.7301 7.60359 15.0251 7.94336 15.0251H12.5371C12.8769 15.0251 13.1523 14.7301 13.1523 14.3661V9.44562C13.1523 9.08168 12.8769 8.78662 12.5371 8.78662ZM11.9219 13.7071H8.55859V10.1046H11.9219V13.7071Z" fill="#001F42"/>
<path d="M3.34961 11.1588H5.31836C5.65813 11.1588 5.93359 10.8638 5.93359 10.4998C5.93359 10.1359 5.65813 9.84082 5.31836 9.84082H3.34961C3.00984 9.84082 2.73438 10.1359 2.73438 10.4998C2.73438 10.8638 3.00984 11.1588 3.34961 11.1588Z" fill="#001F42"/>
<path d="M3.34961 13.9708H5.31836C5.65813 13.9708 5.93359 13.6758 5.93359 13.3118C5.93359 12.9479 5.65813 12.6528 5.31836 12.6528H3.34961C3.00984 12.6528 2.73438 12.9479 2.73438 13.3118C2.73438 13.6758 3.00984 13.9708 3.34961 13.9708Z" fill="#001F42"/>
</svg>
