<svg width="29" height="22" viewBox="0 0 29 22" fill="none" xmlns="http://www.w3.org/2000/svg">
<path d="M8.07889 2.40892L5.99484 2.10607L5.06284 0.217642C4.93118 -0.0725736 4.48357 -0.0725207 4.35191 0.217642L3.41991 2.10607L1.33586 2.40892C1.01917 2.44444 0.880906 2.87017 1.11621 3.08507L2.62421 4.55501L2.26819 6.63065C2.20413 6.9428 2.56628 7.2059 2.84333 7.04851L4.70735 6.06851L6.57136 7.04851C6.84794 7.2059 7.21073 6.9428 7.14651 6.63065L6.79054 4.55501L8.29854 3.08507C8.5339 2.87017 8.39558 2.44449 8.07889 2.40892ZM6.08797 4.13277C5.99453 4.22389 5.95193 4.35507 5.97397 4.48366L6.22941 5.97311L4.89186 5.26985C4.77632 5.20917 4.63843 5.20917 4.52295 5.26985L3.1854 5.97311L3.44084 4.48366C3.46288 4.35507 3.42028 4.22389 3.32683 4.13277L2.24472 3.07799L3.74014 2.86071C3.86926 2.842 3.98089 2.76087 4.0386 2.64385L4.70735 1.2887L5.37615 2.64385C5.43392 2.76087 5.54549 2.84195 5.67461 2.86071L7.17003 3.07799L6.08797 4.13277Z" fill="#001F42"/>
<path d="M8.07889 9.86119L5.99484 9.55834L5.06284 7.66991C4.93118 7.3797 4.48357 7.37975 4.35191 7.66991L3.41991 9.55834L1.33586 9.86119C1.01917 9.89671 0.880906 10.3224 1.11621 10.5373L2.62421 12.0073L2.26819 14.0829C2.20413 14.3951 2.56628 14.6582 2.84333 14.5008L4.70735 13.5208L6.57136 14.5008C6.84794 14.6582 7.21073 14.3951 7.14651 14.0829L6.79054 12.0073L8.29854 10.5373C8.5339 10.3224 8.39558 9.89676 8.07889 9.86119ZM6.08797 11.585C5.99453 11.6762 5.95193 11.8073 5.97397 11.9359L6.22941 13.4254L4.89186 12.7221C4.77632 12.6614 4.63843 12.6614 4.52295 12.7221L3.1854 13.4254L3.44084 11.9359C3.46288 11.8073 3.42028 11.6762 3.32683 11.585L2.24472 10.5303L3.74014 10.313C3.86926 10.2943 3.98089 10.2131 4.0386 10.0961L4.70735 8.74098L5.37615 10.0961C5.43392 10.2131 5.54549 10.2942 5.67461 10.313L7.17003 10.5303L6.08797 11.585Z" fill="#001F42"/>
<path d="M8.07889 17.3135L5.99484 17.0106L5.06284 15.1222C4.93118 14.832 4.48357 14.832 4.35191 15.1222L3.41991 17.0106L1.33586 17.3135C1.01917 17.349 0.880906 17.7747 1.11621 17.9896L2.62421 19.4596L2.26819 21.5352C2.20413 21.8473 2.56628 22.1104 2.84333 21.953L4.70735 20.973L6.57136 21.953C6.84794 22.1104 7.21078 21.8473 7.14651 21.5352L6.79054 19.4596L8.29854 17.9896C8.5339 17.7747 8.39558 17.349 8.07889 17.3135ZM6.08797 19.0373C5.99453 19.1284 5.95193 19.2596 5.97397 19.3882L6.22941 20.8776L4.89186 20.1744C4.77632 20.1137 4.63843 20.1137 4.52295 20.1744L3.1854 20.8776L3.44084 19.3882C3.46288 19.2596 3.42028 19.1284 3.32683 19.0373L2.24472 17.9825L3.74014 17.7652C3.86926 17.7465 3.98089 17.6654 4.0386 17.5484L4.70735 16.1932L5.37615 17.5484C5.43392 17.6654 5.54549 17.7465 5.67461 17.7652L7.17003 17.9825L6.08797 19.0373Z" fill="#001F42"/>
<path d="M27.1431 1.39404H26.0012C25.7822 1.39404 25.6048 1.57147 25.6048 1.79044C25.6048 2.00941 25.7822 2.18684 26.0012 2.18684H27.1431C27.2159 2.18684 27.2752 2.24608 27.2752 2.31897V4.7502C27.2752 4.82308 27.2159 4.88233 27.1431 4.88233H11.2872C11.2144 4.88233 11.1551 4.82308 11.1551 4.7502V2.31897C11.1551 2.24608 11.2144 2.18684 11.2872 2.18684H24.1513C24.3702 2.18684 24.5477 2.00941 24.5477 1.79044C24.5477 1.57147 24.3702 1.39404 24.1513 1.39404H11.2872C10.7773 1.39404 10.3623 1.80899 10.3623 2.31897V4.7502C10.3623 5.26018 10.7773 5.67513 11.2872 5.67513H27.1431C27.6531 5.67513 28.068 5.26018 28.068 4.7502V2.31897C28.068 1.80899 27.6531 1.39404 27.1431 1.39404Z" fill="#001F42"/>
<path d="M13.3964 3.13818C13.1775 3.13818 13 3.31561 13 3.53458C13 3.75355 13.1775 3.93098 13.3964 3.93098H24.4955C24.7144 3.93098 24.8919 3.75355 24.8919 3.53458C24.8919 3.31561 24.7144 3.13818 24.4955 3.13818H13.3964Z" fill="#001F42"/>
<path d="M22.9149 8.84631H11.2872C10.7773 8.84631 10.3623 9.26126 10.3623 9.77124V12.2025C10.3623 12.7124 10.7773 13.1274 11.2872 13.1274H20.2402C20.4591 13.1274 20.6366 12.95 20.6366 12.731C20.6366 12.512 20.4591 12.3346 20.2402 12.3346H11.2872C11.2144 12.3346 11.1551 12.2754 11.1551 12.2025V9.77124C11.1551 9.69835 11.2144 9.63911 11.2872 9.63911H22.9149C22.9877 9.63911 23.047 9.69835 23.047 9.77124V12.2025C23.047 12.2754 22.9877 12.3346 22.9149 12.3346H22.09C21.8711 12.3346 21.6936 12.512 21.6936 12.731C21.6936 12.95 21.8711 13.1274 22.09 13.1274H22.9149C23.4248 13.1274 23.8398 12.7124 23.8398 12.2025V9.77124C23.8398 9.26126 23.4249 8.84631 22.9149 8.84631Z" fill="#001F42"/>
<path d="M20.7958 10.5905H13.3964C13.1775 10.5905 13 10.7679 13 10.9869C13 11.2058 13.1775 11.3832 13.3964 11.3832H20.7958C21.0147 11.3832 21.1922 11.2058 21.1922 10.9869C21.1922 10.7679 21.0147 10.5905 20.7958 10.5905Z" fill="#001F42"/>
<path d="M17.6296 16.2986H13.9507C13.7318 16.2986 13.5543 16.476 13.5543 16.695C13.5543 16.914 13.7318 17.0914 13.9507 17.0914H17.6296C17.7024 17.0914 17.7617 17.1506 17.7617 17.2235V19.6547C17.7617 19.7276 17.7024 19.7869 17.6296 19.7869H11.2872C11.2144 19.7869 11.1551 19.7276 11.1551 19.6547V17.2235C11.1551 17.1506 11.2144 17.0914 11.2872 17.0914H12.1008C12.3198 17.0914 12.4972 16.914 12.4972 16.695C12.4972 16.476 12.3198 16.2986 12.1008 16.2986H11.2872C10.7773 16.2986 10.3623 16.7135 10.3623 17.2235V19.6547C10.3623 20.1647 10.7773 20.5797 11.2872 20.5797H17.6296C18.1396 20.5797 18.5545 20.1647 18.5545 19.6547V17.2235C18.5545 16.7135 18.1396 16.2986 17.6296 16.2986Z" fill="#001F42"/>
<path d="M15.7803 18.8355C15.9992 18.8355 16.1766 18.6581 16.1766 18.4391C16.1766 18.2202 15.9992 18.0427 15.7803 18.0427H13.1376C12.9187 18.0427 12.7412 18.2202 12.7412 18.4391C12.7412 18.6581 12.9187 18.8355 13.1376 18.8355H15.7803Z" fill="#001F42"/>
</svg>
