<svg width="14" height="7" viewBox="0 0 14 7" fill="none" xmlns="http://www.w3.org/2000/svg">
<path d="M6.72 6.83658L1.16712 2.27556C1.03858 2.17007 0.967773 2.02925 0.967773 1.8791C0.967773 1.72894 1.03858 1.58812 1.16712 1.48263L1.57596 1.14675C1.84236 0.928181 2.27534 0.928181 2.54134 1.14675L7.20431 4.97674L11.8725 1.1425C12.001 1.037 12.1723 0.97876 12.355 0.97876C12.538 0.97876 12.7093 1.037 12.8379 1.1425L13.2467 1.47838C13.3752 1.58396 13.446 1.72469 13.446 1.87485C13.446 2.025 13.3752 2.16582 13.2467 2.27131L7.68873 6.83658C7.55979 6.94232 7.38763 7.0004 7.20462 7.00007C7.02089 7.0004 6.84884 6.94232 6.72 6.83658Z" fill="#001F42"/>
</svg>
