<svg width="21" height="20" viewBox="0 0 21 20" fill="none" xmlns="http://www.w3.org/2000/svg">
<path d="M19.6352 12.295C19.2769 11.8254 18.8166 11.4381 18.2975 11.1627C18.5748 10.6888 18.7339 10.1377 18.7339 9.5502V8.04801C18.7339 6.28176 17.2965 4.8448 15.5297 4.8448C14.8955 4.8448 14.2909 5.03301 13.7808 5.36395V2.34066C13.7808 1.05 12.7308 0 11.4402 0H6.14613V2.36434C6.14613 3.15719 6.54238 3.85922 7.14723 4.28281V5.35906C6.63871 5.03113 6.03695 4.8448 5.4059 4.8448C3.6391 4.8448 2.20168 6.28176 2.20168 8.04801V9.5502C2.20168 10.1377 2.36074 10.6888 2.63805 11.1627C2.11898 11.438 1.65867 11.8254 1.30043 12.2949C0.755703 13.0089 0.467773 13.8619 0.467773 14.7618V20H20.4678V14.7618C20.4678 13.8619 20.1798 13.0089 19.6352 12.295ZM7.31801 1.17188H11.4401C12.0846 1.17188 12.6089 1.69617 12.6089 2.34066V3.53312H8.4868C7.84234 3.53312 7.31801 3.00883 7.31801 2.36434V1.17188ZM12.6089 4.705V6.29246C12.6089 7.47457 11.6467 8.43629 10.464 8.43629C9.28133 8.43629 8.3191 7.47457 8.3191 6.29246V4.69902C8.37449 4.70297 8.43043 4.70496 8.4868 4.70496H12.6089V4.705ZM4.82906 18.8281H1.63965V14.7618C1.63965 13.5822 2.36648 12.5193 3.44051 12.0784C3.8391 12.3888 4.3127 12.6071 4.8291 12.7014V18.8281H4.82906ZM4.82906 11.4086V11.4982C3.98848 11.2491 3.37352 10.4701 3.37352 9.55023V8.04805C3.37352 6.92797 4.28523 6.01672 5.4059 6.01672C6.25723 6.01672 7.02437 6.54965 7.31809 7.34391C7.40719 7.60961 7.52906 7.86043 7.67895 8.09148C6.06797 8.33477 4.82906 9.72957 4.82906 11.4086ZM9.87809 18.8281H6.00094V11.4086C6.00094 10.3276 6.78988 9.42762 7.82164 9.25547C7.83535 9.66449 7.87082 10.1532 7.94812 10.6836C8.21781 12.5339 8.88332 14.0612 9.87809 15.12V18.8281ZM8.9968 9.26578C9.43941 9.48492 9.93758 9.6082 10.4641 9.6082C10.9911 9.6082 11.4898 9.48465 11.9329 9.26504C11.8861 10.5136 11.6171 12.5504 10.4642 14.0072C9.31414 12.5523 9.04461 10.5134 8.9968 9.26578ZM14.9271 18.8281H11.05V15.12C12.0448 14.0611 12.7103 12.5327 12.98 10.6805C13.057 10.1516 13.0925 9.66402 13.1063 9.25543C14.1381 9.42754 14.9271 10.3275 14.9271 11.4086V18.8281ZM13.2491 8.09145C13.3977 7.86234 13.5188 7.61387 13.6076 7.3507L13.614 7.35305C13.9052 6.55371 14.675 6.01668 15.5296 6.01668C16.6503 6.01668 17.562 6.92793 17.562 8.04801V9.5502C17.562 10.4728 16.9434 11.2537 16.099 11.5004V11.4085C16.099 9.72957 14.8601 8.33477 13.2491 8.09145ZM19.2959 18.8281H16.099V12.7028C16.6183 12.6093 17.0945 12.3903 17.4951 12.0784C18.5691 12.5193 19.2959 13.5823 19.2959 14.7618V18.8281Z" fill="#001F42"/>
</svg>
